<mxfile host="app.diagrams.net" agent="Mozilla/5.0 (Windows NT 10.0; Win64; x64) AppleWebKit/537.36 (KHTML, like Gecko) Chrome/137.0.0.0 Safari/537.36" version="27.0.6" pages="5">
  <diagram name="GitFlow" id="i17rygn2k3aJgl2CBP2Y">
    <mxGraphModel dx="873" dy="510" grid="1" gridSize="10" guides="1" tooltips="1" connect="1" arrows="1" fold="1" page="1" pageScale="1" pageWidth="827" pageHeight="1169" math="0" shadow="0">
      <root>
        <mxCell id="0" />
        <mxCell id="1" parent="0" />
        <mxCell id="ShDthgkVqxmVfU5-ZQQK-1" value="" style="endArrow=none;html=1;rounded=0;movable=0;resizable=0;rotatable=0;deletable=0;editable=0;locked=1;connectable=0;dashed=1;opacity=75;" edge="1" parent="1">
          <mxGeometry width="50" height="50" relative="1" as="geometry">
            <mxPoint x="80" y="120" as="sourcePoint" />
            <mxPoint x="760" y="120" as="targetPoint" />
          </mxGeometry>
        </mxCell>
        <mxCell id="ShDthgkVqxmVfU5-ZQQK-2" value="" style="endArrow=none;html=1;rounded=0;movable=0;resizable=0;rotatable=0;deletable=0;editable=0;locked=1;connectable=0;dashed=1;opacity=75;" edge="1" parent="1">
          <mxGeometry width="50" height="50" relative="1" as="geometry">
            <mxPoint x="80" y="160" as="sourcePoint" />
            <mxPoint x="760" y="160" as="targetPoint" />
          </mxGeometry>
        </mxCell>
        <mxCell id="ShDthgkVqxmVfU5-ZQQK-3" value="" style="endArrow=none;html=1;rounded=0;movable=0;resizable=0;rotatable=0;deletable=0;editable=0;locked=1;connectable=0;dashed=1;opacity=75;" edge="1" parent="1">
          <mxGeometry width="50" height="50" relative="1" as="geometry">
            <mxPoint x="80" y="200" as="sourcePoint" />
            <mxPoint x="760" y="200" as="targetPoint" />
          </mxGeometry>
        </mxCell>
        <mxCell id="ShDthgkVqxmVfU5-ZQQK-4" value="" style="endArrow=none;html=1;rounded=0;movable=0;resizable=0;rotatable=0;deletable=0;editable=0;locked=1;connectable=0;dashed=1;opacity=75;" edge="1" parent="1">
          <mxGeometry width="50" height="50" relative="1" as="geometry">
            <mxPoint x="80" y="240" as="sourcePoint" />
            <mxPoint x="760" y="240" as="targetPoint" />
          </mxGeometry>
        </mxCell>
        <mxCell id="ShDthgkVqxmVfU5-ZQQK-5" value="" style="endArrow=none;html=1;rounded=0;movable=0;resizable=0;rotatable=0;deletable=0;editable=0;locked=1;connectable=0;dashed=1;opacity=75;" edge="1" parent="1">
          <mxGeometry width="50" height="50" relative="1" as="geometry">
            <mxPoint x="80" y="280" as="sourcePoint" />
            <mxPoint x="760" y="280" as="targetPoint" />
          </mxGeometry>
        </mxCell>
        <mxCell id="ShDthgkVqxmVfU5-ZQQK-6" value="" style="endArrow=none;html=1;rounded=0;movable=0;resizable=0;rotatable=0;deletable=0;editable=0;locked=1;connectable=0;dashed=1;opacity=75;" edge="1" parent="1">
          <mxGeometry width="50" height="50" relative="1" as="geometry">
            <mxPoint x="80" y="320" as="sourcePoint" />
            <mxPoint x="760" y="320" as="targetPoint" />
          </mxGeometry>
        </mxCell>
        <mxCell id="ShDthgkVqxmVfU5-ZQQK-7" value="" style="endArrow=none;html=1;rounded=0;movable=0;resizable=0;rotatable=0;deletable=0;editable=0;locked=1;connectable=0;dashed=1;opacity=75;" edge="1" parent="1">
          <mxGeometry width="50" height="50" relative="1" as="geometry">
            <mxPoint x="80" y="360" as="sourcePoint" />
            <mxPoint x="760" y="360" as="targetPoint" />
          </mxGeometry>
        </mxCell>
        <mxCell id="ShDthgkVqxmVfU5-ZQQK-8" value="" style="endArrow=none;html=1;rounded=0;movable=0;resizable=0;rotatable=0;deletable=0;editable=0;locked=1;connectable=0;dashed=1;opacity=75;" edge="1" parent="1">
          <mxGeometry width="50" height="50" relative="1" as="geometry">
            <mxPoint x="80" y="400" as="sourcePoint" />
            <mxPoint x="760" y="400" as="targetPoint" />
          </mxGeometry>
        </mxCell>
        <mxCell id="ShDthgkVqxmVfU5-ZQQK-9" value="&lt;b&gt;&lt;font style=&quot;font-size: 15px;&quot;&gt;Master&lt;/font&gt;&lt;/b&gt;" style="rounded=1;whiteSpace=wrap;html=1;fillColor=#ffcc99;strokeColor=#36393d;movable=0;resizable=0;rotatable=0;deletable=0;editable=0;locked=1;connectable=0;" vertex="1" parent="1">
          <mxGeometry x="10" y="106" width="60" height="30" as="geometry" />
        </mxCell>
        <mxCell id="ShDthgkVqxmVfU5-ZQQK-10" value="&lt;b style=&quot;&quot;&gt;&lt;font style=&quot;font-size: 13px;&quot;&gt;Release&lt;/font&gt;&lt;/b&gt;" style="rounded=1;whiteSpace=wrap;html=1;fillColor=#ffff88;strokeColor=#36393d;movable=0;resizable=0;rotatable=0;deletable=0;editable=0;locked=1;connectable=0;" vertex="1" parent="1">
          <mxGeometry x="10" y="146" width="60" height="30" as="geometry" />
        </mxCell>
        <mxCell id="ShDthgkVqxmVfU5-ZQQK-11" value="&lt;b&gt;&lt;font style=&quot;font-size: 13px;&quot;&gt;Develop&lt;/font&gt;&lt;/b&gt;" style="rounded=1;whiteSpace=wrap;html=1;fillColor=#cdeb8b;strokeColor=#36393d;movable=0;resizable=0;rotatable=0;deletable=0;editable=0;locked=1;connectable=0;" vertex="1" parent="1">
          <mxGeometry x="10" y="186" width="60" height="30" as="geometry" />
        </mxCell>
        <mxCell id="ShDthgkVqxmVfU5-ZQQK-12" value="&lt;b&gt;&lt;font&gt;Feature 1&lt;/font&gt;&lt;/b&gt;" style="rounded=1;whiteSpace=wrap;html=1;fillColor=#cce5ff;strokeColor=#36393d;movable=0;resizable=0;rotatable=0;deletable=0;editable=0;locked=1;connectable=0;" vertex="1" parent="1">
          <mxGeometry x="10" y="226" width="60" height="30" as="geometry" />
        </mxCell>
        <mxCell id="ShDthgkVqxmVfU5-ZQQK-15" value="&lt;b&gt;&lt;font&gt;Feature 2&lt;/font&gt;&lt;/b&gt;" style="rounded=1;whiteSpace=wrap;html=1;fillColor=#cce5ff;strokeColor=#36393d;movable=0;resizable=0;rotatable=0;deletable=0;editable=0;locked=1;connectable=0;" vertex="1" parent="1">
          <mxGeometry x="10" y="267" width="60" height="30" as="geometry" />
        </mxCell>
        <mxCell id="ShDthgkVqxmVfU5-ZQQK-16" value="&lt;b&gt;&lt;font&gt;Feature 3&lt;/font&gt;&lt;/b&gt;" style="rounded=1;whiteSpace=wrap;html=1;fillColor=#cce5ff;strokeColor=#36393d;movable=0;resizable=0;rotatable=0;deletable=0;editable=0;locked=1;connectable=0;" vertex="1" parent="1">
          <mxGeometry x="10" y="307" width="60" height="30" as="geometry" />
        </mxCell>
        <mxCell id="ShDthgkVqxmVfU5-ZQQK-17" value="&lt;b&gt;&lt;font&gt;Feature 4&lt;/font&gt;&lt;/b&gt;" style="rounded=1;whiteSpace=wrap;html=1;fillColor=#cce5ff;strokeColor=#36393d;movable=0;resizable=0;rotatable=0;deletable=0;editable=0;locked=1;connectable=0;" vertex="1" parent="1">
          <mxGeometry x="10" y="346" width="60" height="30" as="geometry" />
        </mxCell>
        <mxCell id="ShDthgkVqxmVfU5-ZQQK-18" value="&lt;b&gt;&lt;font&gt;Feature 5&lt;/font&gt;&lt;/b&gt;" style="rounded=1;whiteSpace=wrap;html=1;fillColor=#cce5ff;strokeColor=#36393d;movable=0;resizable=0;rotatable=0;deletable=0;editable=0;locked=1;connectable=0;" vertex="1" parent="1">
          <mxGeometry x="10" y="386" width="60" height="30" as="geometry" />
        </mxCell>
        <mxCell id="ShDthgkVqxmVfU5-ZQQK-19" value="" style="endArrow=none;html=1;rounded=0;movable=0;resizable=0;rotatable=0;deletable=0;editable=0;locked=1;connectable=0;dashed=1;opacity=75;" edge="1" parent="1">
          <mxGeometry width="50" height="50" relative="1" as="geometry">
            <mxPoint x="80" y="440" as="sourcePoint" />
            <mxPoint x="760" y="440" as="targetPoint" />
          </mxGeometry>
        </mxCell>
        <mxCell id="ShDthgkVqxmVfU5-ZQQK-20" value="&lt;b&gt;&lt;font&gt;Feature 6&lt;/font&gt;&lt;/b&gt;" style="rounded=1;whiteSpace=wrap;html=1;fillColor=#cce5ff;strokeColor=#36393d;movable=0;resizable=0;rotatable=0;deletable=0;editable=0;locked=1;connectable=0;" vertex="1" parent="1">
          <mxGeometry x="10" y="424" width="60" height="30" as="geometry" />
        </mxCell>
        <mxCell id="ShDthgkVqxmVfU5-ZQQK-21" value="" style="endArrow=none;html=1;rounded=0;movable=0;resizable=0;rotatable=0;deletable=0;editable=0;locked=1;connectable=0;dashed=1;opacity=75;" edge="1" parent="1">
          <mxGeometry width="50" height="50" relative="1" as="geometry">
            <mxPoint x="80" y="480" as="sourcePoint" />
            <mxPoint x="760" y="480" as="targetPoint" />
          </mxGeometry>
        </mxCell>
        <mxCell id="ShDthgkVqxmVfU5-ZQQK-22" value="&lt;b&gt;&lt;font&gt;Feature 7&lt;/font&gt;&lt;/b&gt;" style="rounded=1;whiteSpace=wrap;html=1;fillColor=#cce5ff;strokeColor=#36393d;movable=0;resizable=0;rotatable=0;deletable=0;editable=0;locked=1;connectable=0;" vertex="1" parent="1">
          <mxGeometry x="10" y="465" width="60" height="30" as="geometry" />
        </mxCell>
        <mxCell id="ShDthgkVqxmVfU5-ZQQK-23" value="" style="endArrow=none;html=1;rounded=0;movable=0;resizable=0;rotatable=0;deletable=0;editable=0;locked=1;connectable=0;dashed=1;opacity=75;" edge="1" parent="1">
          <mxGeometry width="50" height="50" relative="1" as="geometry">
            <mxPoint x="80" y="520" as="sourcePoint" />
            <mxPoint x="760" y="520" as="targetPoint" />
          </mxGeometry>
        </mxCell>
        <mxCell id="ShDthgkVqxmVfU5-ZQQK-24" value="&lt;b&gt;&lt;font&gt;Feature 8&lt;/font&gt;&lt;/b&gt;" style="rounded=1;whiteSpace=wrap;html=1;fillColor=#cce5ff;strokeColor=#36393d;movable=0;resizable=0;rotatable=0;deletable=0;editable=0;locked=1;connectable=0;" vertex="1" parent="1">
          <mxGeometry x="10" y="505" width="60" height="30" as="geometry" />
        </mxCell>
        <mxCell id="ShDthgkVqxmVfU5-ZQQK-25" value="" style="ellipse;whiteSpace=wrap;html=1;aspect=fixed;fillColor=#ffcc99;strokeColor=#36393d;strokeWidth=4;" vertex="1" parent="1">
          <mxGeometry x="90" y="110" width="20" height="20" as="geometry" />
        </mxCell>
      </root>
    </mxGraphModel>
  </diagram>
  <diagram name="Master" id="UxeE5zdGnWpYPUT2n2KE">
    <mxGraphModel dx="786" dy="459" grid="1" gridSize="10" guides="1" tooltips="1" connect="1" arrows="1" fold="1" page="1" pageScale="1" pageWidth="827" pageHeight="1169" math="0" shadow="0">
      <root>
        <mxCell id="qfJYV40FuQdqQmlXwXBU-0" />
        <mxCell id="qfJYV40FuQdqQmlXwXBU-1" parent="qfJYV40FuQdqQmlXwXBU-0" />
        <mxCell id="qfJYV40FuQdqQmlXwXBU-2" value="" style="endArrow=none;html=1;rounded=0;movable=0;resizable=0;rotatable=0;deletable=0;editable=0;locked=1;connectable=0;dashed=1;opacity=75;" edge="1" parent="qfJYV40FuQdqQmlXwXBU-1">
          <mxGeometry width="50" height="50" relative="1" as="geometry">
            <mxPoint x="80" y="120" as="sourcePoint" />
            <mxPoint x="760" y="120" as="targetPoint" />
          </mxGeometry>
        </mxCell>
        <mxCell id="qfJYV40FuQdqQmlXwXBU-3" value="" style="endArrow=none;html=1;rounded=0;movable=0;resizable=0;rotatable=0;deletable=0;editable=0;locked=1;connectable=0;dashed=1;opacity=75;" edge="1" parent="qfJYV40FuQdqQmlXwXBU-1">
          <mxGeometry width="50" height="50" relative="1" as="geometry">
            <mxPoint x="80" y="160" as="sourcePoint" />
            <mxPoint x="760" y="160" as="targetPoint" />
          </mxGeometry>
        </mxCell>
        <mxCell id="qfJYV40FuQdqQmlXwXBU-4" value="" style="endArrow=none;html=1;rounded=0;movable=0;resizable=0;rotatable=0;deletable=0;editable=0;locked=1;connectable=0;dashed=1;opacity=75;" edge="1" parent="qfJYV40FuQdqQmlXwXBU-1">
          <mxGeometry width="50" height="50" relative="1" as="geometry">
            <mxPoint x="80" y="200" as="sourcePoint" />
            <mxPoint x="760" y="200" as="targetPoint" />
          </mxGeometry>
        </mxCell>
        <mxCell id="qfJYV40FuQdqQmlXwXBU-5" value="" style="endArrow=none;html=1;rounded=0;movable=0;resizable=0;rotatable=0;deletable=0;editable=0;locked=1;connectable=0;dashed=1;opacity=75;" edge="1" parent="qfJYV40FuQdqQmlXwXBU-1">
          <mxGeometry width="50" height="50" relative="1" as="geometry">
            <mxPoint x="80" y="240" as="sourcePoint" />
            <mxPoint x="760" y="240" as="targetPoint" />
          </mxGeometry>
        </mxCell>
        <mxCell id="qfJYV40FuQdqQmlXwXBU-6" value="" style="endArrow=none;html=1;rounded=0;movable=0;resizable=0;rotatable=0;deletable=0;editable=0;locked=1;connectable=0;dashed=1;opacity=75;" edge="1" parent="qfJYV40FuQdqQmlXwXBU-1">
          <mxGeometry width="50" height="50" relative="1" as="geometry">
            <mxPoint x="80" y="280" as="sourcePoint" />
            <mxPoint x="760" y="280" as="targetPoint" />
          </mxGeometry>
        </mxCell>
        <mxCell id="qfJYV40FuQdqQmlXwXBU-7" value="" style="endArrow=none;html=1;rounded=0;movable=0;resizable=0;rotatable=0;deletable=0;editable=0;locked=1;connectable=0;dashed=1;opacity=75;" edge="1" parent="qfJYV40FuQdqQmlXwXBU-1">
          <mxGeometry width="50" height="50" relative="1" as="geometry">
            <mxPoint x="80" y="320" as="sourcePoint" />
            <mxPoint x="760" y="320" as="targetPoint" />
          </mxGeometry>
        </mxCell>
        <mxCell id="qfJYV40FuQdqQmlXwXBU-8" value="" style="endArrow=none;html=1;rounded=0;movable=0;resizable=0;rotatable=0;deletable=0;editable=0;locked=1;connectable=0;dashed=1;opacity=75;" edge="1" parent="qfJYV40FuQdqQmlXwXBU-1">
          <mxGeometry width="50" height="50" relative="1" as="geometry">
            <mxPoint x="80" y="360" as="sourcePoint" />
            <mxPoint x="760" y="360" as="targetPoint" />
          </mxGeometry>
        </mxCell>
        <mxCell id="qfJYV40FuQdqQmlXwXBU-9" value="" style="endArrow=none;html=1;rounded=0;movable=0;resizable=0;rotatable=0;deletable=0;editable=0;locked=1;connectable=0;dashed=1;opacity=75;" edge="1" parent="qfJYV40FuQdqQmlXwXBU-1">
          <mxGeometry width="50" height="50" relative="1" as="geometry">
            <mxPoint x="80" y="400" as="sourcePoint" />
            <mxPoint x="760" y="400" as="targetPoint" />
          </mxGeometry>
        </mxCell>
        <mxCell id="qfJYV40FuQdqQmlXwXBU-10" value="&lt;b&gt;&lt;font style=&quot;font-size: 15px;&quot;&gt;Master&lt;/font&gt;&lt;/b&gt;" style="rounded=1;whiteSpace=wrap;html=1;fillColor=#ffcc99;strokeColor=#36393d;movable=0;resizable=0;rotatable=0;deletable=0;editable=0;locked=1;connectable=0;" vertex="1" parent="qfJYV40FuQdqQmlXwXBU-1">
          <mxGeometry x="10" y="106" width="60" height="30" as="geometry" />
        </mxCell>
        <mxCell id="qfJYV40FuQdqQmlXwXBU-11" value="&lt;b style=&quot;&quot;&gt;&lt;font style=&quot;font-size: 13px;&quot;&gt;Release&lt;/font&gt;&lt;/b&gt;" style="rounded=1;whiteSpace=wrap;html=1;fillColor=#ffff88;strokeColor=#36393d;movable=0;resizable=0;rotatable=0;deletable=0;editable=0;locked=1;connectable=0;" vertex="1" parent="qfJYV40FuQdqQmlXwXBU-1">
          <mxGeometry x="10" y="146" width="60" height="30" as="geometry" />
        </mxCell>
        <mxCell id="qfJYV40FuQdqQmlXwXBU-12" value="&lt;b&gt;&lt;font style=&quot;font-size: 13px;&quot;&gt;Develop&lt;/font&gt;&lt;/b&gt;" style="rounded=1;whiteSpace=wrap;html=1;fillColor=#cdeb8b;strokeColor=#36393d;movable=0;resizable=0;rotatable=0;deletable=0;editable=0;locked=1;connectable=0;" vertex="1" parent="qfJYV40FuQdqQmlXwXBU-1">
          <mxGeometry x="10" y="186" width="60" height="30" as="geometry" />
        </mxCell>
        <mxCell id="qfJYV40FuQdqQmlXwXBU-13" value="&lt;b&gt;&lt;font&gt;Feature 1&lt;/font&gt;&lt;/b&gt;" style="rounded=1;whiteSpace=wrap;html=1;fillColor=#cce5ff;strokeColor=#36393d;movable=0;resizable=0;rotatable=0;deletable=0;editable=0;locked=1;connectable=0;" vertex="1" parent="qfJYV40FuQdqQmlXwXBU-1">
          <mxGeometry x="10" y="226" width="60" height="30" as="geometry" />
        </mxCell>
        <mxCell id="qfJYV40FuQdqQmlXwXBU-14" value="&lt;b&gt;&lt;font&gt;Feature 2&lt;/font&gt;&lt;/b&gt;" style="rounded=1;whiteSpace=wrap;html=1;fillColor=#cce5ff;strokeColor=#36393d;movable=0;resizable=0;rotatable=0;deletable=0;editable=0;locked=1;connectable=0;" vertex="1" parent="qfJYV40FuQdqQmlXwXBU-1">
          <mxGeometry x="10" y="267" width="60" height="30" as="geometry" />
        </mxCell>
        <mxCell id="qfJYV40FuQdqQmlXwXBU-15" value="&lt;b&gt;&lt;font&gt;Feature 3&lt;/font&gt;&lt;/b&gt;" style="rounded=1;whiteSpace=wrap;html=1;fillColor=#cce5ff;strokeColor=#36393d;movable=0;resizable=0;rotatable=0;deletable=0;editable=0;locked=1;connectable=0;" vertex="1" parent="qfJYV40FuQdqQmlXwXBU-1">
          <mxGeometry x="10" y="307" width="60" height="30" as="geometry" />
        </mxCell>
        <mxCell id="qfJYV40FuQdqQmlXwXBU-16" value="&lt;b&gt;&lt;font&gt;Feature 4&lt;/font&gt;&lt;/b&gt;" style="rounded=1;whiteSpace=wrap;html=1;fillColor=#cce5ff;strokeColor=#36393d;movable=0;resizable=0;rotatable=0;deletable=0;editable=0;locked=1;connectable=0;" vertex="1" parent="qfJYV40FuQdqQmlXwXBU-1">
          <mxGeometry x="10" y="346" width="60" height="30" as="geometry" />
        </mxCell>
        <mxCell id="qfJYV40FuQdqQmlXwXBU-17" value="&lt;b&gt;&lt;font&gt;Feature 5&lt;/font&gt;&lt;/b&gt;" style="rounded=1;whiteSpace=wrap;html=1;fillColor=#cce5ff;strokeColor=#36393d;movable=0;resizable=0;rotatable=0;deletable=0;editable=0;locked=1;connectable=0;" vertex="1" parent="qfJYV40FuQdqQmlXwXBU-1">
          <mxGeometry x="10" y="386" width="60" height="30" as="geometry" />
        </mxCell>
        <mxCell id="qfJYV40FuQdqQmlXwXBU-18" value="" style="endArrow=none;html=1;rounded=0;movable=0;resizable=0;rotatable=0;deletable=0;editable=0;locked=1;connectable=0;dashed=1;opacity=75;" edge="1" parent="qfJYV40FuQdqQmlXwXBU-1">
          <mxGeometry width="50" height="50" relative="1" as="geometry">
            <mxPoint x="80" y="440" as="sourcePoint" />
            <mxPoint x="760" y="440" as="targetPoint" />
          </mxGeometry>
        </mxCell>
        <mxCell id="qfJYV40FuQdqQmlXwXBU-19" value="&lt;b&gt;&lt;font&gt;Feature 6&lt;/font&gt;&lt;/b&gt;" style="rounded=1;whiteSpace=wrap;html=1;fillColor=#cce5ff;strokeColor=#36393d;movable=0;resizable=0;rotatable=0;deletable=0;editable=0;locked=1;connectable=0;" vertex="1" parent="qfJYV40FuQdqQmlXwXBU-1">
          <mxGeometry x="10" y="424" width="60" height="30" as="geometry" />
        </mxCell>
        <mxCell id="qfJYV40FuQdqQmlXwXBU-20" value="" style="endArrow=none;html=1;rounded=0;movable=0;resizable=0;rotatable=0;deletable=0;editable=0;locked=1;connectable=0;dashed=1;opacity=75;" edge="1" parent="qfJYV40FuQdqQmlXwXBU-1">
          <mxGeometry width="50" height="50" relative="1" as="geometry">
            <mxPoint x="80" y="480" as="sourcePoint" />
            <mxPoint x="760" y="480" as="targetPoint" />
          </mxGeometry>
        </mxCell>
        <mxCell id="qfJYV40FuQdqQmlXwXBU-21" value="&lt;b&gt;&lt;font&gt;Feature 7&lt;/font&gt;&lt;/b&gt;" style="rounded=1;whiteSpace=wrap;html=1;fillColor=#cce5ff;strokeColor=#36393d;movable=0;resizable=0;rotatable=0;deletable=0;editable=0;locked=1;connectable=0;" vertex="1" parent="qfJYV40FuQdqQmlXwXBU-1">
          <mxGeometry x="10" y="465" width="60" height="30" as="geometry" />
        </mxCell>
        <mxCell id="qfJYV40FuQdqQmlXwXBU-22" value="" style="endArrow=none;html=1;rounded=0;movable=0;resizable=0;rotatable=0;deletable=0;editable=0;locked=1;connectable=0;dashed=1;opacity=75;" edge="1" parent="qfJYV40FuQdqQmlXwXBU-1">
          <mxGeometry width="50" height="50" relative="1" as="geometry">
            <mxPoint x="80" y="520" as="sourcePoint" />
            <mxPoint x="760" y="520" as="targetPoint" />
          </mxGeometry>
        </mxCell>
        <mxCell id="qfJYV40FuQdqQmlXwXBU-23" value="&lt;b&gt;&lt;font&gt;Feature 8&lt;/font&gt;&lt;/b&gt;" style="rounded=1;whiteSpace=wrap;html=1;fillColor=#cce5ff;strokeColor=#36393d;movable=0;resizable=0;rotatable=0;deletable=0;editable=0;locked=1;connectable=0;" vertex="1" parent="qfJYV40FuQdqQmlXwXBU-1">
          <mxGeometry x="10" y="505" width="60" height="30" as="geometry" />
        </mxCell>
        <mxCell id="qfJYV40FuQdqQmlXwXBU-24" value="" style="ellipse;whiteSpace=wrap;html=1;aspect=fixed;fillColor=#ffcc99;strokeColor=#36393d;strokeWidth=4;" vertex="1" parent="qfJYV40FuQdqQmlXwXBU-1">
          <mxGeometry x="90" y="110" width="20" height="20" as="geometry" />
        </mxCell>
      </root>
    </mxGraphModel>
  </diagram>
  <diagram name="Release" id="gWKa0FqYxo3TXZptJEbJ">
    <mxGraphModel dx="786" dy="459" grid="1" gridSize="10" guides="1" tooltips="1" connect="1" arrows="1" fold="1" page="1" pageScale="1" pageWidth="827" pageHeight="1169" math="0" shadow="0">
      <root>
        <mxCell id="fufRrzxJa9CqycYTHOVN-0" />
        <mxCell id="fufRrzxJa9CqycYTHOVN-1" parent="fufRrzxJa9CqycYTHOVN-0" />
        <mxCell id="fufRrzxJa9CqycYTHOVN-2" value="" style="endArrow=none;html=1;rounded=0;movable=0;resizable=0;rotatable=0;deletable=0;editable=0;locked=1;connectable=0;dashed=1;opacity=75;" edge="1" parent="fufRrzxJa9CqycYTHOVN-1">
          <mxGeometry width="50" height="50" relative="1" as="geometry">
            <mxPoint x="80" y="120" as="sourcePoint" />
            <mxPoint x="760" y="120" as="targetPoint" />
          </mxGeometry>
        </mxCell>
        <mxCell id="fufRrzxJa9CqycYTHOVN-3" value="" style="endArrow=none;html=1;rounded=0;movable=0;resizable=0;rotatable=0;deletable=0;editable=0;locked=1;connectable=0;dashed=1;opacity=75;" edge="1" parent="fufRrzxJa9CqycYTHOVN-1">
          <mxGeometry width="50" height="50" relative="1" as="geometry">
            <mxPoint x="80" y="160" as="sourcePoint" />
            <mxPoint x="760" y="160" as="targetPoint" />
          </mxGeometry>
        </mxCell>
        <mxCell id="fufRrzxJa9CqycYTHOVN-4" value="" style="endArrow=none;html=1;rounded=0;movable=0;resizable=0;rotatable=0;deletable=0;editable=0;locked=1;connectable=0;dashed=1;opacity=75;" edge="1" parent="fufRrzxJa9CqycYTHOVN-1">
          <mxGeometry width="50" height="50" relative="1" as="geometry">
            <mxPoint x="80" y="200" as="sourcePoint" />
            <mxPoint x="760" y="200" as="targetPoint" />
          </mxGeometry>
        </mxCell>
        <mxCell id="fufRrzxJa9CqycYTHOVN-5" value="" style="endArrow=none;html=1;rounded=0;movable=0;resizable=0;rotatable=0;deletable=0;editable=0;locked=1;connectable=0;dashed=1;opacity=75;" edge="1" parent="fufRrzxJa9CqycYTHOVN-1">
          <mxGeometry width="50" height="50" relative="1" as="geometry">
            <mxPoint x="80" y="240" as="sourcePoint" />
            <mxPoint x="760" y="240" as="targetPoint" />
          </mxGeometry>
        </mxCell>
        <mxCell id="fufRrzxJa9CqycYTHOVN-6" value="" style="endArrow=none;html=1;rounded=0;movable=0;resizable=0;rotatable=0;deletable=0;editable=0;locked=1;connectable=0;dashed=1;opacity=75;" edge="1" parent="fufRrzxJa9CqycYTHOVN-1">
          <mxGeometry width="50" height="50" relative="1" as="geometry">
            <mxPoint x="80" y="280" as="sourcePoint" />
            <mxPoint x="760" y="280" as="targetPoint" />
          </mxGeometry>
        </mxCell>
        <mxCell id="fufRrzxJa9CqycYTHOVN-7" value="" style="endArrow=none;html=1;rounded=0;movable=0;resizable=0;rotatable=0;deletable=0;editable=0;locked=1;connectable=0;dashed=1;opacity=75;" edge="1" parent="fufRrzxJa9CqycYTHOVN-1">
          <mxGeometry width="50" height="50" relative="1" as="geometry">
            <mxPoint x="80" y="320" as="sourcePoint" />
            <mxPoint x="760" y="320" as="targetPoint" />
          </mxGeometry>
        </mxCell>
        <mxCell id="fufRrzxJa9CqycYTHOVN-8" value="" style="endArrow=none;html=1;rounded=0;movable=0;resizable=0;rotatable=0;deletable=0;editable=0;locked=1;connectable=0;dashed=1;opacity=75;" edge="1" parent="fufRrzxJa9CqycYTHOVN-1">
          <mxGeometry width="50" height="50" relative="1" as="geometry">
            <mxPoint x="80" y="360" as="sourcePoint" />
            <mxPoint x="760" y="360" as="targetPoint" />
          </mxGeometry>
        </mxCell>
        <mxCell id="fufRrzxJa9CqycYTHOVN-9" value="" style="endArrow=none;html=1;rounded=0;movable=0;resizable=0;rotatable=0;deletable=0;editable=0;locked=1;connectable=0;dashed=1;opacity=75;" edge="1" parent="fufRrzxJa9CqycYTHOVN-1">
          <mxGeometry width="50" height="50" relative="1" as="geometry">
            <mxPoint x="80" y="400" as="sourcePoint" />
            <mxPoint x="760" y="400" as="targetPoint" />
          </mxGeometry>
        </mxCell>
        <mxCell id="fufRrzxJa9CqycYTHOVN-10" value="&lt;b&gt;&lt;font style=&quot;font-size: 15px;&quot;&gt;Master&lt;/font&gt;&lt;/b&gt;" style="rounded=1;whiteSpace=wrap;html=1;fillColor=#ffcc99;strokeColor=#36393d;movable=0;resizable=0;rotatable=0;deletable=0;editable=0;locked=1;connectable=0;" vertex="1" parent="fufRrzxJa9CqycYTHOVN-1">
          <mxGeometry x="10" y="106" width="60" height="30" as="geometry" />
        </mxCell>
        <mxCell id="fufRrzxJa9CqycYTHOVN-11" value="&lt;b style=&quot;&quot;&gt;&lt;font style=&quot;font-size: 13px;&quot;&gt;Release&lt;/font&gt;&lt;/b&gt;" style="rounded=1;whiteSpace=wrap;html=1;fillColor=#ffff88;strokeColor=#36393d;movable=0;resizable=0;rotatable=0;deletable=0;editable=0;locked=1;connectable=0;" vertex="1" parent="fufRrzxJa9CqycYTHOVN-1">
          <mxGeometry x="10" y="146" width="60" height="30" as="geometry" />
        </mxCell>
        <mxCell id="fufRrzxJa9CqycYTHOVN-12" value="&lt;b&gt;&lt;font style=&quot;font-size: 13px;&quot;&gt;Develop&lt;/font&gt;&lt;/b&gt;" style="rounded=1;whiteSpace=wrap;html=1;fillColor=#cdeb8b;strokeColor=#36393d;movable=0;resizable=0;rotatable=0;deletable=0;editable=0;locked=1;connectable=0;" vertex="1" parent="fufRrzxJa9CqycYTHOVN-1">
          <mxGeometry x="10" y="186" width="60" height="30" as="geometry" />
        </mxCell>
        <mxCell id="fufRrzxJa9CqycYTHOVN-13" value="&lt;b&gt;&lt;font&gt;Feature 1&lt;/font&gt;&lt;/b&gt;" style="rounded=1;whiteSpace=wrap;html=1;fillColor=#cce5ff;strokeColor=#36393d;movable=0;resizable=0;rotatable=0;deletable=0;editable=0;locked=1;connectable=0;" vertex="1" parent="fufRrzxJa9CqycYTHOVN-1">
          <mxGeometry x="10" y="226" width="60" height="30" as="geometry" />
        </mxCell>
        <mxCell id="fufRrzxJa9CqycYTHOVN-14" value="&lt;b&gt;&lt;font&gt;Feature 2&lt;/font&gt;&lt;/b&gt;" style="rounded=1;whiteSpace=wrap;html=1;fillColor=#cce5ff;strokeColor=#36393d;movable=0;resizable=0;rotatable=0;deletable=0;editable=0;locked=1;connectable=0;" vertex="1" parent="fufRrzxJa9CqycYTHOVN-1">
          <mxGeometry x="10" y="267" width="60" height="30" as="geometry" />
        </mxCell>
        <mxCell id="fufRrzxJa9CqycYTHOVN-15" value="&lt;b&gt;&lt;font&gt;Feature 3&lt;/font&gt;&lt;/b&gt;" style="rounded=1;whiteSpace=wrap;html=1;fillColor=#cce5ff;strokeColor=#36393d;movable=0;resizable=0;rotatable=0;deletable=0;editable=0;locked=1;connectable=0;" vertex="1" parent="fufRrzxJa9CqycYTHOVN-1">
          <mxGeometry x="10" y="307" width="60" height="30" as="geometry" />
        </mxCell>
        <mxCell id="fufRrzxJa9CqycYTHOVN-16" value="&lt;b&gt;&lt;font&gt;Feature 4&lt;/font&gt;&lt;/b&gt;" style="rounded=1;whiteSpace=wrap;html=1;fillColor=#cce5ff;strokeColor=#36393d;movable=0;resizable=0;rotatable=0;deletable=0;editable=0;locked=1;connectable=0;" vertex="1" parent="fufRrzxJa9CqycYTHOVN-1">
          <mxGeometry x="10" y="346" width="60" height="30" as="geometry" />
        </mxCell>
        <mxCell id="fufRrzxJa9CqycYTHOVN-17" value="&lt;b&gt;&lt;font&gt;Feature 5&lt;/font&gt;&lt;/b&gt;" style="rounded=1;whiteSpace=wrap;html=1;fillColor=#cce5ff;strokeColor=#36393d;movable=0;resizable=0;rotatable=0;deletable=0;editable=0;locked=1;connectable=0;" vertex="1" parent="fufRrzxJa9CqycYTHOVN-1">
          <mxGeometry x="10" y="386" width="60" height="30" as="geometry" />
        </mxCell>
        <mxCell id="fufRrzxJa9CqycYTHOVN-18" value="" style="endArrow=none;html=1;rounded=0;movable=0;resizable=0;rotatable=0;deletable=0;editable=0;locked=1;connectable=0;dashed=1;opacity=75;" edge="1" parent="fufRrzxJa9CqycYTHOVN-1">
          <mxGeometry width="50" height="50" relative="1" as="geometry">
            <mxPoint x="80" y="440" as="sourcePoint" />
            <mxPoint x="760" y="440" as="targetPoint" />
          </mxGeometry>
        </mxCell>
        <mxCell id="fufRrzxJa9CqycYTHOVN-19" value="&lt;b&gt;&lt;font&gt;Feature 6&lt;/font&gt;&lt;/b&gt;" style="rounded=1;whiteSpace=wrap;html=1;fillColor=#cce5ff;strokeColor=#36393d;movable=0;resizable=0;rotatable=0;deletable=0;editable=0;locked=1;connectable=0;" vertex="1" parent="fufRrzxJa9CqycYTHOVN-1">
          <mxGeometry x="10" y="424" width="60" height="30" as="geometry" />
        </mxCell>
        <mxCell id="fufRrzxJa9CqycYTHOVN-20" value="" style="endArrow=none;html=1;rounded=0;movable=0;resizable=0;rotatable=0;deletable=0;editable=0;locked=1;connectable=0;dashed=1;opacity=75;" edge="1" parent="fufRrzxJa9CqycYTHOVN-1">
          <mxGeometry width="50" height="50" relative="1" as="geometry">
            <mxPoint x="80" y="480" as="sourcePoint" />
            <mxPoint x="760" y="480" as="targetPoint" />
          </mxGeometry>
        </mxCell>
        <mxCell id="fufRrzxJa9CqycYTHOVN-21" value="&lt;b&gt;&lt;font&gt;Feature 7&lt;/font&gt;&lt;/b&gt;" style="rounded=1;whiteSpace=wrap;html=1;fillColor=#cce5ff;strokeColor=#36393d;movable=0;resizable=0;rotatable=0;deletable=0;editable=0;locked=1;connectable=0;" vertex="1" parent="fufRrzxJa9CqycYTHOVN-1">
          <mxGeometry x="10" y="465" width="60" height="30" as="geometry" />
        </mxCell>
        <mxCell id="fufRrzxJa9CqycYTHOVN-22" value="" style="endArrow=none;html=1;rounded=0;movable=0;resizable=0;rotatable=0;deletable=0;editable=0;locked=1;connectable=0;dashed=1;opacity=75;" edge="1" parent="fufRrzxJa9CqycYTHOVN-1">
          <mxGeometry width="50" height="50" relative="1" as="geometry">
            <mxPoint x="80" y="520" as="sourcePoint" />
            <mxPoint x="760" y="520" as="targetPoint" />
          </mxGeometry>
        </mxCell>
        <mxCell id="fufRrzxJa9CqycYTHOVN-23" value="&lt;b&gt;&lt;font&gt;Feature 8&lt;/font&gt;&lt;/b&gt;" style="rounded=1;whiteSpace=wrap;html=1;fillColor=#cce5ff;strokeColor=#36393d;movable=0;resizable=0;rotatable=0;deletable=0;editable=0;locked=1;connectable=0;" vertex="1" parent="fufRrzxJa9CqycYTHOVN-1">
          <mxGeometry x="10" y="505" width="60" height="30" as="geometry" />
        </mxCell>
        <mxCell id="fufRrzxJa9CqycYTHOVN-24" value="" style="ellipse;whiteSpace=wrap;html=1;aspect=fixed;fillColor=#ffcc99;strokeColor=#36393d;strokeWidth=4;" vertex="1" parent="fufRrzxJa9CqycYTHOVN-1">
          <mxGeometry x="90" y="110" width="20" height="20" as="geometry" />
        </mxCell>
      </root>
    </mxGraphModel>
  </diagram>
  <diagram name="Develop" id="V-gRMnwOf9txQhnSWtvT">
    <mxGraphModel dx="786" dy="459" grid="1" gridSize="10" guides="1" tooltips="1" connect="1" arrows="1" fold="1" page="1" pageScale="1" pageWidth="827" pageHeight="1169" math="0" shadow="0">
      <root>
        <mxCell id="idsLDG91RzFc9yH1TgKX-0" />
        <mxCell id="idsLDG91RzFc9yH1TgKX-1" parent="idsLDG91RzFc9yH1TgKX-0" />
        <mxCell id="idsLDG91RzFc9yH1TgKX-2" value="" style="endArrow=none;html=1;rounded=0;movable=0;resizable=0;rotatable=0;deletable=0;editable=0;locked=1;connectable=0;dashed=1;opacity=75;" edge="1" parent="idsLDG91RzFc9yH1TgKX-1">
          <mxGeometry width="50" height="50" relative="1" as="geometry">
            <mxPoint x="80" y="120" as="sourcePoint" />
            <mxPoint x="760" y="120" as="targetPoint" />
          </mxGeometry>
        </mxCell>
        <mxCell id="idsLDG91RzFc9yH1TgKX-3" value="" style="endArrow=none;html=1;rounded=0;movable=0;resizable=0;rotatable=0;deletable=0;editable=0;locked=1;connectable=0;dashed=1;opacity=75;" edge="1" parent="idsLDG91RzFc9yH1TgKX-1">
          <mxGeometry width="50" height="50" relative="1" as="geometry">
            <mxPoint x="80" y="160" as="sourcePoint" />
            <mxPoint x="760" y="160" as="targetPoint" />
          </mxGeometry>
        </mxCell>
        <mxCell id="idsLDG91RzFc9yH1TgKX-4" value="" style="endArrow=none;html=1;rounded=0;movable=0;resizable=0;rotatable=0;deletable=0;editable=0;locked=1;connectable=0;dashed=1;opacity=75;" edge="1" parent="idsLDG91RzFc9yH1TgKX-1">
          <mxGeometry width="50" height="50" relative="1" as="geometry">
            <mxPoint x="80" y="200" as="sourcePoint" />
            <mxPoint x="760" y="200" as="targetPoint" />
          </mxGeometry>
        </mxCell>
        <mxCell id="idsLDG91RzFc9yH1TgKX-5" value="" style="endArrow=none;html=1;rounded=0;movable=0;resizable=0;rotatable=0;deletable=0;editable=0;locked=1;connectable=0;dashed=1;opacity=75;" edge="1" parent="idsLDG91RzFc9yH1TgKX-1">
          <mxGeometry width="50" height="50" relative="1" as="geometry">
            <mxPoint x="80" y="240" as="sourcePoint" />
            <mxPoint x="760" y="240" as="targetPoint" />
          </mxGeometry>
        </mxCell>
        <mxCell id="idsLDG91RzFc9yH1TgKX-6" value="" style="endArrow=none;html=1;rounded=0;movable=0;resizable=0;rotatable=0;deletable=0;editable=0;locked=1;connectable=0;dashed=1;opacity=75;" edge="1" parent="idsLDG91RzFc9yH1TgKX-1">
          <mxGeometry width="50" height="50" relative="1" as="geometry">
            <mxPoint x="80" y="280" as="sourcePoint" />
            <mxPoint x="760" y="280" as="targetPoint" />
          </mxGeometry>
        </mxCell>
        <mxCell id="idsLDG91RzFc9yH1TgKX-7" value="" style="endArrow=none;html=1;rounded=0;movable=0;resizable=0;rotatable=0;deletable=0;editable=0;locked=1;connectable=0;dashed=1;opacity=75;" edge="1" parent="idsLDG91RzFc9yH1TgKX-1">
          <mxGeometry width="50" height="50" relative="1" as="geometry">
            <mxPoint x="80" y="320" as="sourcePoint" />
            <mxPoint x="760" y="320" as="targetPoint" />
          </mxGeometry>
        </mxCell>
        <mxCell id="idsLDG91RzFc9yH1TgKX-8" value="" style="endArrow=none;html=1;rounded=0;movable=0;resizable=0;rotatable=0;deletable=0;editable=0;locked=1;connectable=0;dashed=1;opacity=75;" edge="1" parent="idsLDG91RzFc9yH1TgKX-1">
          <mxGeometry width="50" height="50" relative="1" as="geometry">
            <mxPoint x="80" y="360" as="sourcePoint" />
            <mxPoint x="760" y="360" as="targetPoint" />
          </mxGeometry>
        </mxCell>
        <mxCell id="idsLDG91RzFc9yH1TgKX-9" value="" style="endArrow=none;html=1;rounded=0;movable=0;resizable=0;rotatable=0;deletable=0;editable=0;locked=1;connectable=0;dashed=1;opacity=75;" edge="1" parent="idsLDG91RzFc9yH1TgKX-1">
          <mxGeometry width="50" height="50" relative="1" as="geometry">
            <mxPoint x="80" y="400" as="sourcePoint" />
            <mxPoint x="760" y="400" as="targetPoint" />
          </mxGeometry>
        </mxCell>
        <mxCell id="idsLDG91RzFc9yH1TgKX-10" value="&lt;b&gt;&lt;font style=&quot;font-size: 15px;&quot;&gt;Master&lt;/font&gt;&lt;/b&gt;" style="rounded=1;whiteSpace=wrap;html=1;fillColor=#ffcc99;strokeColor=#36393d;movable=0;resizable=0;rotatable=0;deletable=0;editable=0;locked=1;connectable=0;" vertex="1" parent="idsLDG91RzFc9yH1TgKX-1">
          <mxGeometry x="10" y="106" width="60" height="30" as="geometry" />
        </mxCell>
        <mxCell id="idsLDG91RzFc9yH1TgKX-11" value="&lt;b style=&quot;&quot;&gt;&lt;font style=&quot;font-size: 13px;&quot;&gt;Release&lt;/font&gt;&lt;/b&gt;" style="rounded=1;whiteSpace=wrap;html=1;fillColor=#ffff88;strokeColor=#36393d;movable=0;resizable=0;rotatable=0;deletable=0;editable=0;locked=1;connectable=0;" vertex="1" parent="idsLDG91RzFc9yH1TgKX-1">
          <mxGeometry x="10" y="146" width="60" height="30" as="geometry" />
        </mxCell>
        <mxCell id="idsLDG91RzFc9yH1TgKX-12" value="&lt;b&gt;&lt;font style=&quot;font-size: 13px;&quot;&gt;Develop&lt;/font&gt;&lt;/b&gt;" style="rounded=1;whiteSpace=wrap;html=1;fillColor=#cdeb8b;strokeColor=#36393d;movable=0;resizable=0;rotatable=0;deletable=0;editable=0;locked=1;connectable=0;" vertex="1" parent="idsLDG91RzFc9yH1TgKX-1">
          <mxGeometry x="10" y="186" width="60" height="30" as="geometry" />
        </mxCell>
        <mxCell id="idsLDG91RzFc9yH1TgKX-13" value="&lt;b&gt;&lt;font&gt;Feature 1&lt;/font&gt;&lt;/b&gt;" style="rounded=1;whiteSpace=wrap;html=1;fillColor=#cce5ff;strokeColor=#36393d;movable=0;resizable=0;rotatable=0;deletable=0;editable=0;locked=1;connectable=0;" vertex="1" parent="idsLDG91RzFc9yH1TgKX-1">
          <mxGeometry x="10" y="226" width="60" height="30" as="geometry" />
        </mxCell>
        <mxCell id="idsLDG91RzFc9yH1TgKX-14" value="&lt;b&gt;&lt;font&gt;Feature 2&lt;/font&gt;&lt;/b&gt;" style="rounded=1;whiteSpace=wrap;html=1;fillColor=#cce5ff;strokeColor=#36393d;movable=0;resizable=0;rotatable=0;deletable=0;editable=0;locked=1;connectable=0;" vertex="1" parent="idsLDG91RzFc9yH1TgKX-1">
          <mxGeometry x="10" y="267" width="60" height="30" as="geometry" />
        </mxCell>
        <mxCell id="idsLDG91RzFc9yH1TgKX-15" value="&lt;b&gt;&lt;font&gt;Feature 3&lt;/font&gt;&lt;/b&gt;" style="rounded=1;whiteSpace=wrap;html=1;fillColor=#cce5ff;strokeColor=#36393d;movable=0;resizable=0;rotatable=0;deletable=0;editable=0;locked=1;connectable=0;" vertex="1" parent="idsLDG91RzFc9yH1TgKX-1">
          <mxGeometry x="10" y="307" width="60" height="30" as="geometry" />
        </mxCell>
        <mxCell id="idsLDG91RzFc9yH1TgKX-16" value="&lt;b&gt;&lt;font&gt;Feature 4&lt;/font&gt;&lt;/b&gt;" style="rounded=1;whiteSpace=wrap;html=1;fillColor=#cce5ff;strokeColor=#36393d;movable=0;resizable=0;rotatable=0;deletable=0;editable=0;locked=1;connectable=0;" vertex="1" parent="idsLDG91RzFc9yH1TgKX-1">
          <mxGeometry x="10" y="346" width="60" height="30" as="geometry" />
        </mxCell>
        <mxCell id="idsLDG91RzFc9yH1TgKX-17" value="&lt;b&gt;&lt;font&gt;Feature 5&lt;/font&gt;&lt;/b&gt;" style="rounded=1;whiteSpace=wrap;html=1;fillColor=#cce5ff;strokeColor=#36393d;movable=0;resizable=0;rotatable=0;deletable=0;editable=0;locked=1;connectable=0;" vertex="1" parent="idsLDG91RzFc9yH1TgKX-1">
          <mxGeometry x="10" y="386" width="60" height="30" as="geometry" />
        </mxCell>
        <mxCell id="idsLDG91RzFc9yH1TgKX-18" value="" style="endArrow=none;html=1;rounded=0;movable=0;resizable=0;rotatable=0;deletable=0;editable=0;locked=1;connectable=0;dashed=1;opacity=75;" edge="1" parent="idsLDG91RzFc9yH1TgKX-1">
          <mxGeometry width="50" height="50" relative="1" as="geometry">
            <mxPoint x="80" y="440" as="sourcePoint" />
            <mxPoint x="760" y="440" as="targetPoint" />
          </mxGeometry>
        </mxCell>
        <mxCell id="idsLDG91RzFc9yH1TgKX-19" value="&lt;b&gt;&lt;font&gt;Feature 6&lt;/font&gt;&lt;/b&gt;" style="rounded=1;whiteSpace=wrap;html=1;fillColor=#cce5ff;strokeColor=#36393d;movable=0;resizable=0;rotatable=0;deletable=0;editable=0;locked=1;connectable=0;" vertex="1" parent="idsLDG91RzFc9yH1TgKX-1">
          <mxGeometry x="10" y="424" width="60" height="30" as="geometry" />
        </mxCell>
        <mxCell id="idsLDG91RzFc9yH1TgKX-20" value="" style="endArrow=none;html=1;rounded=0;movable=0;resizable=0;rotatable=0;deletable=0;editable=0;locked=1;connectable=0;dashed=1;opacity=75;" edge="1" parent="idsLDG91RzFc9yH1TgKX-1">
          <mxGeometry width="50" height="50" relative="1" as="geometry">
            <mxPoint x="80" y="480" as="sourcePoint" />
            <mxPoint x="760" y="480" as="targetPoint" />
          </mxGeometry>
        </mxCell>
        <mxCell id="idsLDG91RzFc9yH1TgKX-21" value="&lt;b&gt;&lt;font&gt;Feature 7&lt;/font&gt;&lt;/b&gt;" style="rounded=1;whiteSpace=wrap;html=1;fillColor=#cce5ff;strokeColor=#36393d;movable=0;resizable=0;rotatable=0;deletable=0;editable=0;locked=1;connectable=0;" vertex="1" parent="idsLDG91RzFc9yH1TgKX-1">
          <mxGeometry x="10" y="465" width="60" height="30" as="geometry" />
        </mxCell>
        <mxCell id="idsLDG91RzFc9yH1TgKX-22" value="" style="endArrow=none;html=1;rounded=0;movable=0;resizable=0;rotatable=0;deletable=0;editable=0;locked=1;connectable=0;dashed=1;opacity=75;" edge="1" parent="idsLDG91RzFc9yH1TgKX-1">
          <mxGeometry width="50" height="50" relative="1" as="geometry">
            <mxPoint x="80" y="520" as="sourcePoint" />
            <mxPoint x="760" y="520" as="targetPoint" />
          </mxGeometry>
        </mxCell>
        <mxCell id="idsLDG91RzFc9yH1TgKX-23" value="&lt;b&gt;&lt;font&gt;Feature 8&lt;/font&gt;&lt;/b&gt;" style="rounded=1;whiteSpace=wrap;html=1;fillColor=#cce5ff;strokeColor=#36393d;movable=0;resizable=0;rotatable=0;deletable=0;editable=0;locked=1;connectable=0;" vertex="1" parent="idsLDG91RzFc9yH1TgKX-1">
          <mxGeometry x="10" y="505" width="60" height="30" as="geometry" />
        </mxCell>
        <mxCell id="idsLDG91RzFc9yH1TgKX-24" value="" style="ellipse;whiteSpace=wrap;html=1;aspect=fixed;fillColor=#ffcc99;strokeColor=#36393d;strokeWidth=4;" vertex="1" parent="idsLDG91RzFc9yH1TgKX-1">
          <mxGeometry x="90" y="110" width="20" height="20" as="geometry" />
        </mxCell>
      </root>
    </mxGraphModel>
  </diagram>
  <diagram name="Feature2" id="S4usZ1u4IqkqzzwAJ33Z">
    <mxGraphModel dx="786" dy="459" grid="1" gridSize="10" guides="1" tooltips="1" connect="1" arrows="1" fold="1" page="1" pageScale="1" pageWidth="827" pageHeight="1169" math="0" shadow="0">
      <root>
        <mxCell id="ApYrRXQRJ9XVSHwYz7zL-0" />
        <mxCell id="ApYrRXQRJ9XVSHwYz7zL-1" parent="ApYrRXQRJ9XVSHwYz7zL-0" />
        <mxCell id="ApYrRXQRJ9XVSHwYz7zL-2" value="" style="endArrow=none;html=1;rounded=0;movable=0;resizable=0;rotatable=0;deletable=0;editable=0;locked=1;connectable=0;dashed=1;opacity=75;" edge="1" parent="ApYrRXQRJ9XVSHwYz7zL-1">
          <mxGeometry width="50" height="50" relative="1" as="geometry">
            <mxPoint x="80" y="120" as="sourcePoint" />
            <mxPoint x="760" y="120" as="targetPoint" />
          </mxGeometry>
        </mxCell>
        <mxCell id="ApYrRXQRJ9XVSHwYz7zL-3" value="" style="endArrow=none;html=1;rounded=0;movable=0;resizable=0;rotatable=0;deletable=0;editable=0;locked=1;connectable=0;dashed=1;opacity=75;" edge="1" parent="ApYrRXQRJ9XVSHwYz7zL-1">
          <mxGeometry width="50" height="50" relative="1" as="geometry">
            <mxPoint x="80" y="160" as="sourcePoint" />
            <mxPoint x="760" y="160" as="targetPoint" />
          </mxGeometry>
        </mxCell>
        <mxCell id="ApYrRXQRJ9XVSHwYz7zL-4" value="" style="endArrow=none;html=1;rounded=0;movable=0;resizable=0;rotatable=0;deletable=0;editable=0;locked=1;connectable=0;dashed=1;opacity=75;" edge="1" parent="ApYrRXQRJ9XVSHwYz7zL-1">
          <mxGeometry width="50" height="50" relative="1" as="geometry">
            <mxPoint x="80" y="200" as="sourcePoint" />
            <mxPoint x="760" y="200" as="targetPoint" />
          </mxGeometry>
        </mxCell>
        <mxCell id="ApYrRXQRJ9XVSHwYz7zL-5" value="" style="endArrow=none;html=1;rounded=0;movable=0;resizable=0;rotatable=0;deletable=0;editable=0;locked=1;connectable=0;dashed=1;opacity=75;" edge="1" parent="ApYrRXQRJ9XVSHwYz7zL-1">
          <mxGeometry width="50" height="50" relative="1" as="geometry">
            <mxPoint x="80" y="240" as="sourcePoint" />
            <mxPoint x="760" y="240" as="targetPoint" />
          </mxGeometry>
        </mxCell>
        <mxCell id="ApYrRXQRJ9XVSHwYz7zL-10" value="&lt;b&gt;&lt;font style=&quot;font-size: 15px;&quot;&gt;Master&lt;/font&gt;&lt;/b&gt;" style="rounded=1;whiteSpace=wrap;html=1;fillColor=#ffcc99;strokeColor=#36393d;movable=0;resizable=0;rotatable=0;deletable=0;editable=0;locked=1;connectable=0;" vertex="1" parent="ApYrRXQRJ9XVSHwYz7zL-1">
          <mxGeometry x="10" y="106" width="60" height="30" as="geometry" />
        </mxCell>
        <mxCell id="ApYrRXQRJ9XVSHwYz7zL-11" value="&lt;b style=&quot;&quot;&gt;&lt;font style=&quot;font-size: 13px;&quot;&gt;Release&lt;/font&gt;&lt;/b&gt;" style="rounded=1;whiteSpace=wrap;html=1;fillColor=#ffff88;strokeColor=#36393d;movable=0;resizable=0;rotatable=0;deletable=0;editable=0;locked=1;connectable=0;" vertex="1" parent="ApYrRXQRJ9XVSHwYz7zL-1">
          <mxGeometry x="10" y="146" width="60" height="30" as="geometry" />
        </mxCell>
        <mxCell id="ApYrRXQRJ9XVSHwYz7zL-12" value="&lt;b&gt;&lt;font style=&quot;font-size: 13px;&quot;&gt;Develop&lt;/font&gt;&lt;/b&gt;" style="rounded=1;whiteSpace=wrap;html=1;fillColor=#cdeb8b;strokeColor=#36393d;movable=0;resizable=0;rotatable=0;deletable=0;editable=0;locked=1;connectable=0;" vertex="1" parent="ApYrRXQRJ9XVSHwYz7zL-1">
          <mxGeometry x="10" y="186" width="60" height="30" as="geometry" />
        </mxCell>
        <mxCell id="ApYrRXQRJ9XVSHwYz7zL-13" value="&lt;b&gt;&lt;font&gt;Features&lt;/font&gt;&lt;/b&gt;" style="rounded=1;whiteSpace=wrap;html=1;fillColor=#cce5ff;strokeColor=#36393d;movable=1;resizable=1;rotatable=1;deletable=1;editable=1;locked=0;connectable=1;" vertex="1" parent="ApYrRXQRJ9XVSHwYz7zL-1">
          <mxGeometry x="10" y="226" width="60" height="30" as="geometry" />
        </mxCell>
        <mxCell id="ApYrRXQRJ9XVSHwYz7zL-24" value="" style="ellipse;whiteSpace=wrap;html=1;aspect=fixed;fillColor=#ffcc99;strokeColor=#36393d;strokeWidth=4;" vertex="1" parent="ApYrRXQRJ9XVSHwYz7zL-1">
          <mxGeometry x="90" y="110" width="20" height="20" as="geometry" />
        </mxCell>
      </root>
    </mxGraphModel>
  </diagram>
</mxfile>
